<svg width="146" height="49" viewBox="0 0 146 49" fill="none" xmlns="http://www.w3.org/2000/svg">
<path d="M145.672 19.7242H141.387V24.0098H145.672V19.7242Z" fill="white"/>
<path fill-rule="evenodd" clip-rule="evenodd" d="M131.591 48.4994L41.4701 48.4994V41.6423H48.3271V27.9282L62.0413 27.9282V14.2141L75.7554 14.2141V0.5L117.877 0.5V14.2141L131.591 14.2141V24.0098H141.387V41.6423H131.591V48.4994ZM117.877 20.4834H124.93V27.5363H117.877V20.4834Z" fill="white"/>
<rect width="6.85706" height="6.85706" transform="matrix(-1 0 0 1 34.6138 41.6421)" fill="white"/>
<rect width="6.85706" height="6.85706" transform="matrix(-1 0 0 1 20.8994 41.6431)" fill="white"/>
<rect width="6.85706" height="6.85706" transform="matrix(-1 0 0 1 7.18506 41.6421)" fill="white"/>
</svg>
