<svg fill="none" height="49" viewBox="0 0 146 49" width="146" xmlns="http://www.w3.org/2000/svg"><g fill="#fff"><path d="m145.672 19.7242h-4.285v4.2856h4.285z"/><path clip-rule="evenodd" d="m131.591 48.4994h-90.1209v-6.8571h6.857v-13.7141h13.7142v-13.7141h13.7141v-13.7141h42.1216v13.7141h13.714v9.7957h9.796v17.6325h-9.796zm-13.714-28.016h7.053v7.0529h-7.053z" fill-rule="evenodd"/><path d="m0 0h6.85706v6.85706h-6.85706z" transform="matrix(-1 0 0 1 34.6138 41.6421)"/><path d="m0 0h6.85706v6.85706h-6.85706z" transform="matrix(-1 0 0 1 20.8994 41.6431)"/><path d="m0 0h6.85706v6.85706h-6.85706z" transform="matrix(-1 0 0 1 7.18506 41.6421)"/></g></svg>