<svg width="62" height="81" viewBox="0 0 62 81" fill="none" xmlns="http://www.w3.org/2000/svg">
<path d="M34.5068 28.1694H30.2238V32.4524H34.5068V28.1694Z" fill="#FF5107"/>
<path d="M20.3343 28.1694H16.0513V32.4524H20.3343V28.1694Z" fill="#FF5107"/>
<path d="M28.6623 30.7719H21.8958V34.936H28.6623V30.7719Z" fill="#FF5107"/>
<path fill-rule="evenodd" clip-rule="evenodd" d="M46.5158 12.0339H38.1878V8H12.6088V12.0339H4.28082V20.3619H0.000125885L-0.000217438 74.3705H46.5155L46.5158 66.0359H50.7725V28.5598V20.3619H46.5158V12.0339ZM38.1391 24.6449V20.3442L42.4332 20.3507V16.0566H38.1391V20.3442L27.48 20.3573V24.6514H23.1859V20.3507L12.6088 20.3619V16.0678H8.3147V20.3619H12.6088V24.6561L8.32358 24.6449V40.5425H12.6088V44.8367L38.1878 44.8255V40.5425H42.4707V24.6449H38.1391Z" fill="#FF5107"/>
<path d="M52.7383 50.2009L52.7383 54.4817L61.7076 54.4817L61.7076 50.2009L52.7383 50.2009Z" fill="#FF5107"/>
<path d="M36.8789 76.7192L36.8789 81L45.8483 81L45.8483 76.7192L36.8789 76.7192Z" fill="#FF5107"/>
<path d="M4.38184 76.7192L4.38184 81L13.3512 81L13.3512 76.7192L4.38184 76.7192Z" fill="#FF5107"/>
<path d="M4.33844 0.26123L0.0576172 0.26123L0.0576172 9.23057H4.33844L4.33844 0.26123Z" fill="#FF5107"/>
</svg>
