<svg fill="none" height="81" viewBox="0 0 62 81" width="62" xmlns="http://www.w3.org/2000/svg"><g fill="#ff5107"><path d="m34.5068 28.1694h-4.283v4.283h4.283z"/><path d="m20.3343 28.1694h-4.283v4.283h4.283z"/><path d="m28.6623 30.7719h-6.7665v4.1641h6.7665z"/><path clip-rule="evenodd" d="m46.5158 12.0339h-8.328v-4.0339h-25.579v4.0339h-8.32798v8.328h-4.28069411l-.00034333 54.0086h46.51571744l.0003-8.3346h4.2567v-37.4761-8.1979h-4.2567zm-8.3767 12.611v-4.3007l4.2941.0065v-4.2941h-4.2941v4.2876l-10.6591.0131v4.2941h-4.2941v-4.3007l-10.5771.0112v-4.2941h-4.2941v4.2941h4.2941v4.2942l-4.28522-.0112v15.8976h4.28522v4.2942l25.579-.0112v-4.283h4.2829v-15.8976z" fill-rule="evenodd"/><path d="m52.7383 50.2009v4.2808h8.9693v-4.2808z"/><path d="m36.8789 76.7192v4.2808h8.9694v-4.2808z"/><path d="m4.38184 76.7192v4.2808h8.96936v-4.2808z"/><path d="m4.33844.26123h-4.2808228v8.96934h4.2808228z"/></g></svg>