<svg width="85" height="94" viewBox="0 0 85 94" fill="none" xmlns="http://www.w3.org/2000/svg">
<path d="M31.6796 62.9104H36.6213V67.8521H31.6796V62.9104Z" fill="#FF5107"/>
<path d="M48.0319 62.9104H52.9737V67.8521H48.0319V62.9104Z" fill="#FF5107"/>
<path d="M38.423 65.9131H46.2302V70.7176H38.423V65.9131Z" fill="#FF5107"/>
<path fill-rule="evenodd" clip-rule="evenodd" d="M17.8235 44.293H27.4324V39.6387H56.9456V44.293H66.5546V53.902H71.4937V63.5109V93.1898H66.555H17.8239H12.9121V63.3608V53.902H17.8235V44.293ZM27.4886 58.8437V53.8891H22.534V48.9344H27.4886V53.8891L39.7871 53.8966V58.8512H44.7417V53.8966L56.9456 53.902V48.9473H61.9002V53.902H56.9456V58.8566L61.89 58.8437V77.1865H56.9456V82.1412L27.4324 82.1283V77.1865H22.4908V58.8437H27.4886Z" fill="#FF5107"/>
<path fill-rule="evenodd" clip-rule="evenodd" d="M36.6213 62.9104H31.6796V67.8521H36.6213V62.9104ZM52.9737 62.9104H48.0319V67.8521H52.9737V62.9104ZM46.2302 65.9131H38.423V70.7176H46.2302V65.9131Z" fill="#FF5107"/>
<path d="M31.8193 4.94437H36.7611V15.304H31.8193V4.94437Z" fill="#FF5107"/>
<path d="M36.7611 0V4.94437H47.1207V0H36.7611Z" fill="#FF5107"/>
<path d="M39.5556 30.6054H44.4974V27.926H39.5556V30.6054Z" fill="#FF5107"/>
<path d="M52.0651 4.94437H47.1207V15.304H52.0651V4.94437Z" fill="#FF5107"/>
<path d="M39.4556 25.6637H44.3974V20.2458L47.1207 20.2458V15.304H36.7611V20.2458L39.4556 20.2458V25.6637Z" fill="#FF5107"/>
<path d="M73.8682 88.2832L73.8682 93.2275L84.2278 93.2275L84.2278 88.2832L73.8682 88.2832Z" fill="#FF5107"/>
<path d="M5.89611e-08 88.2832L0 93.2275L10.3596 93.2275L10.3596 88.2832L5.89611e-08 88.2832Z" fill="#FF5107"/>
</svg>
