<svg fill="none" height="94" viewBox="0 0 85 94" width="85" xmlns="http://www.w3.org/2000/svg"><g fill="#ff5107"><path d="m31.6796 62.9104h4.9417v4.9417h-4.9417z"/><path d="m48.0319 62.9104h4.9418v4.9417h-4.9418z"/><path d="m38.423 65.9131h7.8072v4.8045h-7.8072z"/><path clip-rule="evenodd" d="m17.8235 44.293h9.6089v-4.6543h29.5132v4.6543h9.609v9.609h4.9391v9.6089 29.6789h-4.9387-48.7311-4.9118v-29.829-9.4588h4.9114zm9.6651 14.5507v-4.9546h-4.9546v-4.9547h4.9546v4.9547l12.2985.0075v4.9546h4.9546v-4.9546l12.2039.0054v-4.9547h4.9546v4.9547h-4.9546v4.9546l4.9444-.0129v18.3428h-4.9444v4.9547l-29.5132-.0129v-4.9418h-4.9416v-18.3428z" fill-rule="evenodd"/><path clip-rule="evenodd" d="m36.6213 62.9104h-4.9417v4.9417h4.9417zm16.3524 0h-4.9418v4.9417h4.9418zm-6.7435 3.0027h-7.8072v4.8045h7.8072z" fill-rule="evenodd"/><path d="m31.8193 4.94437h4.9418v10.35963h-4.9418z"/><path d="m36.7611 0v4.94437h10.3596v-4.94437z"/><path d="m39.5556 30.6054h4.9418v-2.6794h-4.9418z"/><path d="m52.0651 4.94437h-4.9444v10.35963h4.9444z"/><path d="m39.4556 25.6637h4.9418v-5.4179h2.7233v-4.9418h-10.3596v4.9418h2.6945z"/><path d="m73.8682 88.2832v4.9443h10.3596v-4.9443z"/><path d="m.00000006 88.2832-.00000006 4.9443h10.3596v-4.9443z"/></g></svg>