<svg fill="none" height="49" viewBox="0 0 85 49" width="85" xmlns="http://www.w3.org/2000/svg"><g fill="#fff"><path d="m21.0685 6.80903h-13.94227v14.05737h-7.12623v13.8377.2275h7.12623l.00057 14.0684 13.9417-.0189v-7.2294h-7.1702v-9.263h7.2518v-7.2483h-7.189v-7.2483h7.189v7.2483l42.7411.0189v-7.2483h7.189v7.2483h-7.189v7.2483l7.1742-.0189-.0001 9.263h-7.1741v7.2483h13.9423v-14.0684h7.1665v-.0079-7.0287-7.0286h-7.1665v-14.05737h-13.9423v-6.80903h-42.8227z"/><path d="m50.9578 37.5595h7.1703v7.2295h-7.1703z"/><path d="m37.0155 41.9524h11.3281v7.0476l-11.3281-.0189z"/><path d="m27.231 37.5595h7.1703v7.2295h-7.1703z"/></g></svg>