<svg width="85" height="49" viewBox="0 0 85 49" fill="none" xmlns="http://www.w3.org/2000/svg">
<path d="M21.0685 6.80903H7.12623V20.8664H0V34.7041V34.9316H7.12623L7.1268 49L21.0685 48.9811V41.7517H13.8983L13.8983 32.4887H21.1501V25.2404H13.9611V17.9921H21.1501V25.2404L63.8912 25.2593V18.011H71.0802V25.2593H63.8912V32.5076L71.0654 32.4887L71.0653 41.7517H63.8912V49L77.8335 49V34.9316H85V34.9237V27.895V20.8664H77.8335V6.80903H63.8912V0H21.0685V6.80903Z" fill="white"/>
<path d="M50.9578 37.5595H58.1281V44.789H50.9578V37.5595Z" fill="white"/>
<path d="M37.0155 41.9524H48.3436V49L37.0155 48.9811V41.9524Z" fill="white"/>
<path d="M27.231 37.5595H34.4013V44.789H27.231V37.5595Z" fill="white"/>
</svg>
