<svg fill="none" height="38" viewBox="0 0 55 38" width="55" xmlns="http://www.w3.org/2000/svg"><g fill="#ff5107"><path d="m22.2454 27.0726v-2.7885h.7482v2.7885z"/><path d="m22.2454 17.8455v-2.7885h.7482v2.7885z"/><path d="m22.2454 23.2675v-4.4054h2.7158v4.4054z"/><path clip-rule="evenodd" d="m6.62598 29.4566h2.63118v5.4321h5.43214v2.7765h5.3472l29.8809.0018v-2.7765-.002-27.54862l-5.4364.00023v-2.79217h-24.3596-5.4321v2.79217h-5.43214v5.43209h-2.63118zm5.25502-.0318v2.801h2.801v-2.801h2.8009v2.8254h10.3696v-2.7936h2.7936l.0073-16.6844h-2.8009v-2.79512h-10.3696l.0073 2.79512h-2.8009v-2.80091h-2.801v2.80091h2.801l-.003 6.8991h2.8009v2.8009h-2.8009l-.0043 6.9526zm10.3644-5.1407v2.7885h.7482v-2.7885zm0-9.2271v2.7885h.7482v-2.7885zm0 3.8051v4.4054h2.7158v-4.4054z" fill-rule="evenodd"/><path d="m32.5952.497335v2.795145h5.8565v-2.795146z"/><path d="m51.4451 13.1885h2.7951v-5.85652h-2.7951z"/><path d="m51.4451 37.667h2.7951v-5.8565h-2.7951z"/><path d="m.760254 34.8718v2.7952h5.856496v-2.7952z"/></g></svg>