<svg fill="none" height="75" viewBox="0 0 84 75" width="84" xmlns="http://www.w3.org/2000/svg"><g fill="#ff5107"><path d="m26.9107 33.0175h7.0859v7.0113h-7.0859z"/><path d="m50.3582 33.0175h7.086v7.0113h-7.086z"/><path d="m36.58 37.2778h11.1948v7.0113h-11.1948z"/><path d="m27.9871 60.2836h-7.1664v14.6981h7.1664z"/><path d="m63.1396 60.3019h-7.0898v14.6981h7.0898z"/><path d="m20.8207 6.6035h-13.77831v13.633h-7.04239v13.4201 13.002h7.04239l.00057 13.6438 13.77774-.0188v-7.0112h-7.0859v-26.0246h7.1664v-7.0296h-7.1044v-7.0295h7.1044v7.0295l17.5988.0107v7.0113h7.086v-7.0113l17.5536.0076v-7.0295h7.1044v7.0295h-7.1044v7.0296l7.0897-.0183v26.0246h-7.0897v7.0295l13.7788.0005-.0006-13.6438h7.0822v-12.789-13.6331h-7.0822v-13.633h-13.7782v-6.6035h-42.3189z"/></g></svg>