<svg width="84" height="75" viewBox="0 0 84 75" fill="none" xmlns="http://www.w3.org/2000/svg">
<path d="M26.9107 33.0175H33.9966V40.0288H26.9107V33.0175Z" fill="#FF5107"/>
<path d="M50.3582 33.0175H57.4442V40.0288H50.3582V33.0175Z" fill="#FF5107"/>
<path d="M36.58 37.2778H47.7748V44.2891H36.58V37.2778Z" fill="#FF5107"/>
<path d="M27.9871 60.2836H20.8207V74.9817H27.9871V60.2836Z" fill="#FF5107"/>
<path d="M63.1396 60.3019H56.0498V75H63.1396V60.3019Z" fill="#FF5107"/>
<path d="M20.8207 6.6035H7.04239V20.2365H0V33.6566V46.6586H7.04239L7.04296 60.3024L20.8207 60.2836V53.2724H13.7348V27.2478H20.9012V20.2182H13.7968V13.1887H20.9012V20.2182L38.5 20.2289V27.2402H45.586V20.2289L63.1396 20.2365V13.207H70.244V20.2365H63.1396V27.2661L70.2293 27.2478V53.2724H63.1396V60.3019L76.9184 60.3024L76.9178 46.6586H84V33.8696V20.2365H76.9178V6.6035H63.1396V0H20.8207V6.6035Z" fill="#FF5107"/>
</svg>
