<svg fill="none" height="73" viewBox="0 0 73 73" width="73" xmlns="http://www.w3.org/2000/svg"><g fill="#ff5107"><path d="m45.5449 20.1694h-4.283v4.283h4.283z"/><path d="m31.3724 20.1694h-4.283v4.283h4.283z"/><path d="m39.7004 22.7719h-6.7665v4.1641h6.7665z"/><path clip-rule="evenodd" d="m57.5539 4.03389h-8.328v-4.03389h-25.579v4.03389h-8.328v8.32801h-4.2807l-.0003 54.0086h46.5157l.0003-8.3346h4.2566v-37.4761-8.1979h-4.2566zm-8.3767 12.61101v-4.3007l4.2941.0065v-4.29411h-4.2941v4.28761l-10.6591.0131v4.2941h-4.2941v-4.3007l-10.5771.0112v-4.29412h-4.2941v4.29412h4.2941v4.2942l-4.2852-.0112v15.8976h4.2852v4.2942l25.579-.0112v-4.283h4.2829v-15.8976z" fill-rule="evenodd"/><path d="m8.97852 42.161v4.2853h-8.97865924l-.00000005-4.2853z"/><path d="m4.55458 66.3638h4.28526v-8.9787h-4.28526z"/><path d="m49.0566 68.5761v4.2852h-8.9786v-4.2852z"/><path d="m73 42.161v4.2853h-8.9787v-4.2853z"/></g></svg>