<svg width="73" height="73" viewBox="0 0 73 73" fill="none" xmlns="http://www.w3.org/2000/svg">
<path d="M45.5449 20.1694H41.2619V24.4524H45.5449V20.1694Z" fill="#FF5107"/>
<path d="M31.3724 20.1694H27.0894V24.4524H31.3724V20.1694Z" fill="#FF5107"/>
<path d="M39.7004 22.7719H32.9339V26.936H39.7004V22.7719Z" fill="#FF5107"/>
<path fill-rule="evenodd" clip-rule="evenodd" d="M57.5539 4.03389H49.2259V0H23.6469V4.03389H15.3189V12.3619H11.0382L11.0379 66.3705H57.5536L57.5539 58.0359H61.8105V20.5598V12.3619H57.5539V4.03389ZM49.1772 16.6449V12.3442L53.4713 12.3507V8.05659H49.1772V12.3442L38.5181 12.3573V16.6514H34.224V12.3507L23.6469 12.3619V8.06778H19.3528V12.3619H23.6469V16.6561L19.3617 16.6449V32.5425H23.6469V36.8367L49.2259 36.8255V32.5425H53.5088V16.6449H49.1772Z" fill="#FF5107"/>
<path d="M8.97852 42.161L8.97852 46.4463L-0.000139236 46.4463L-0.000139288 42.161L8.97852 42.161Z" fill="#FF5107"/>
<path d="M4.55458 66.3638H8.83984V57.3851H4.55458L4.55458 66.3638Z" fill="#FF5107"/>
<path d="M49.0566 68.5761L49.0566 72.8613L40.078 72.8613L40.078 68.5761L49.0566 68.5761Z" fill="#FF5107"/>
<path d="M73 42.161L73 46.4463L64.0213 46.4463L64.0213 42.161L73 42.161Z" fill="#FF5107"/>
</svg>
